<svg width="130" height="183" viewBox="0 0 130 183" fill="none" xmlns="http://www.w3.org/2000/svg">
<path d="M119.738 64.6874L97.8684 36.0424C95.5621 33.019 92.0145 31.2496 88.26 31.2496H54.4633C50.7088 31.2496 47.1612 33.019 44.8549 36.0424L22.9851 64.6874C24.5003 87.6021 35.3074 106.711 53.1063 114.434V114.428C58.6499 116.824 64.7654 118.165 71.3617 118.165C77.9579 118.165 84.0734 116.824 89.617 114.422V114.428C107.416 106.711 118.217 87.6021 119.738 64.6874ZM53.1063 80.9158C49.7474 80.9158 47.0212 78.1345 47.0212 74.7075C47.0212 71.2806 49.7474 68.4993 53.1063 68.4993C56.4653 68.4993 59.1914 71.2806 59.1914 74.7075C59.1914 78.1345 56.4653 80.9158 53.1063 80.9158ZM89.617 80.9158C86.258 80.9158 83.5319 78.1345 83.5319 74.7075C83.5319 71.2806 86.258 68.4993 89.617 68.4993C92.976 68.4993 95.7021 71.2806 95.7021 74.7075C95.7021 78.1345 92.976 80.9158 89.617 80.9158ZM22.6808 54.9776V25.0413C22.6808 11.3273 33.5792 0.208252 47.0212 0.208252H95.7021C109.144 0.208252 120.043 11.3273 120.043 25.0413V54.9776L102.67 32.2305C99.2132 27.6923 93.8948 25.0413 88.26 25.0413H54.4572C48.8224 25.0413 43.504 27.6923 40.0477 32.2305L22.6808 54.9776ZM142.637 171.401L140.58 161.748C138.931 152.516 132.45 145.109 123.821 142.477L95.0023 131.762L89.7691 136.381C84.6515 140.919 78.0796 143.427 71.2643 143.427C64.4733 143.427 57.9257 140.937 52.8203 136.405L47.6358 131.836L19.0967 142.415C10.2915 145.116 3.79264 152.522 2.14966 161.76L0.348466 171.817C-1.0146 179.441 4.72366 186.456 12.3179 186.456H130.74C138.505 186.456 144.286 179.143 142.637 171.401ZM120.043 167.832C120.043 171.259 117.316 174.04 113.957 174.04H95.7021C92.3431 174.04 89.617 171.259 89.617 167.832V161.623C89.617 158.196 92.3431 155.415 95.7021 155.415H113.957C117.316 155.415 120.043 158.196 120.043 161.623V167.832ZM71.3617 124.374C77.891 124.374 83.9943 123.225 89.617 121.152V128.304L85.7834 131.693C77.7632 138.802 64.8263 138.82 56.8122 131.718L53.1063 128.453V121.158C58.729 123.225 64.8323 124.374 71.3617 124.374ZM95.7021 161.623H113.957V167.832H95.7021V161.623Z" fill="url(#paint0_linear_22_6484)"/>
<defs>
<linearGradient id="paint0_linear_22_6484" x1="-37.0001" y1="23" x2="108" y2="186" gradientUnits="userSpaceOnUse">
<stop stop-color="#8E8E8E"/>
<stop offset="1" stop-color="#CB9D9D"/>
</linearGradient>
</defs>
</svg>
